<svg xmlns="http://www.w3.org/2000/svg" width="24" height="24" viewBox="0 0 24 24" fill="#61DAFB">
  <path d="M12 9.861A2.139 2.139 0 1 0 12 14.139 2.139 2.139 0 1 0 12 9.861zM6.008 16.255l-.472-.12C2.018 15.246 0 13.737 0 12c0-1.737 2.018-3.246 5.536-4.135l.472-.119.133.468a23.53 23.53 0 0 0 1.363 3.578l.101.213-.101.213a23.307 23.307 0 0 0-1.363 3.578l-.133.467zM5.317 8.371l-.196-.48C4.372 6.061 4.017 4.262 4.017 2.725 4.017 1.032 4.861 0 6.305 0c1.166 0 2.431.755 3.726 2.225l.165.185-.165.185A23.959 23.959 0 0 0 6.557 6.01l-.24.47zm.793 1.61l.472-.119c.682-.17 1.404-.315 2.154-.434l.224-.035.221.035c.881.139 1.713.293 2.504.477l.463.119-.133.468a23.304 23.304 0 0 0-1.363 3.578l-.101.213-.101-.213a23.14 23.14 0 0 0-1.363-3.578l-.133-.467zm5.539 5.284l-.165.185C10.383 17.245 9.175 18 8.009 18c-1.444 0-2.288-1.032-2.288-2.725 0-1.487.355-3.186 1.104-4.666l.196-.48.48.196c1.106.451 2.149.847 3.119 1.194l.224.067-.035.221a23.22 23.22 0 0 0-.15 2.813zm1.632-1.896l-.133-.468a23.52 23.52 0 0 0-1.363-3.578l-.101-.213.101-.213a23.307 23.307 0 0 0 1.363-3.578l.133-.467.472.119c3.517.889 5.535 2.398 5.535 4.135 0 1.737-2.018 3.246-5.535 4.135l-.472.119zm-.793-1.61l.24-.47a23.959 23.959 0 0 0 2.374-3.754l.165-.185.165.185c1.506 1.759 2.472 3.384 2.472 4.666 0 1.693-.844 2.725-2.288 2.725-1.166 0-2.431-.755-3.726-2.225l-.165-.185z"/>
</svg>
