<svg xmlns="http://www.w3.org/2000/svg" width="24" height="24" viewBox="0 0 24 24" fill="#3178C6">
  <path d="M1.125 0C.502 0 0 .502 0 1.125v21.75C0 23.498.502 24 1.125 24h21.75c.623 0 1.125-.502 1.125-1.125V1.125C24 .502 23.498 0 22.875 0zm17.363 9.75c.446 0 .817.048 1.102.144.285.096.523.239.713.429.189.189.333.457.431.802.099.345.148.819.148 1.421v4.545h-2.404v-4.358c0-.546-.099-.951-.297-1.215-.198-.264-.503-.396-1.015-.396-.311 0-.579.061-.804.183a1.63 1.63 0 0 0-.556.507 2.22 2.22 0 0 0-.33.75c-.075.282-.112.586-.112.911v3.618h-2.395V9.895h2.395v1.045c.264-.352.579-.645.945-.879a2.65 2.65 0 0 1 1.365-.363zm-8.264.495h2.585v1.015h-2.585v3.769c0 .446.075.744.224.894.149.15.394.224.735.224.198 0 .436-.024.713-.072v1.665c-.446.124-.87.186-1.272.186-.669 0-1.165-.175-1.488-.525-.323-.35-.485-.952-.485-1.808v-3.734h-1.304V9.895h1.304V7.965h2.395v1.93z"/>
</svg>
